<svg xmlns="http://www.w3.org/2000/svg" version="1.1" xmlns:xlink="http://www.w3.org/1999/xlink" xmlns:svgjs="http://svgjs.dev/svgjs" width="1500" height="545" viewBox="0 0 1500 545"><g transform="matrix(1,0,0,1,-0.9090909090909918,-0.38911788585517115)"><svg viewBox="0 0 396 144" data-background-color="#ffffff" preserveAspectRatio="xMidYMid meet" height="545" width="1500" xmlns="http://www.w3.org/2000/svg" xmlns:xlink="http://www.w3.org/1999/xlink"><g id="tight-bounds" transform="matrix(1,0,0,1,0.2400000000000091,0.102812799198432)"><svg viewBox="0 0 395.52 143.79437440160314" height="143.79437440160314" width="395.52"><g><svg viewBox="0 0 601.2886188617829 218.60315732209256" height="143.79437440160314" width="395.52"><g><svg viewBox="0 0 395.52 218.60315732209256" height="218.60315732209256" width="395.52"><g id="textblocktransform"><svg viewBox="0 0 395.52 218.60315732209256" height="218.60315732209256" width="395.52" id="textblock"><g><svg viewBox="0 0 395.52 95.07573350015639" height="95.07573350015639" width="395.52"><g transform="matrix(1,0,0,1,0,0)"><svg width="395.52" viewBox="1.64 -37.04 156.08 37.53" height="95.07573350015639" data-palette-color="#152232"><path d="M10.69 0L6.25 0 6.25-23.71 1.64-23.71 1.76-26 6.25-26.34 6.25-28.37Q6.25-31.98 7.14-33.85 8.03-35.72 9.72-36.38 11.4-37.04 13.79-37.04L13.79-37.04Q15.58-37.04 16.69-36.84 17.8-36.65 17.85-36.62L17.85-36.62 17.55-33.59Q17.46-33.62 16.54-33.7 15.63-33.79 14.99-33.79L14.99-33.79Q13.28-33.79 12.34-33.35 11.4-32.91 11.05-31.74 10.69-30.57 10.69-28.37L10.69-28.37 10.69-26.42 17.38-26.42 17.38-23.71 10.69-23.71 10.69 0ZM33.93 0.49L33.93 0.49Q30.37 0.49 27.5-1.15 24.63-2.78 22.96-5.85 21.29-8.91 21.29-13.13L21.29-13.13Q21.29-17.53 22.92-20.63 24.56-23.73 27.32-25.37 30.08-27 33.4-27L33.4-27Q36.64-27 38.94-25.56 41.23-24.12 42.47-21.46 43.7-18.8 43.7-15.14L43.7-15.14Q43.7-14.77 43.64-14.14 43.58-13.5 43.53-12.99 43.48-12.48 43.48-12.43L43.48-12.43 25.83-12.43Q26.02-9.06 27.18-6.93 28.34-4.81 30.23-3.81 32.13-2.81 34.49-2.81L34.49-2.81Q36.77-2.81 38.38-3.45 39.99-4.1 41.62-5.03L41.62-5.03 41.94-5.03 42.97-2.12Q41.33-1 39.02-0.26 36.72 0.49 33.93 0.49ZM25.9-15.31L25.9-15.31 39.89-15.31Q39.84-19.29 38.32-21.5 36.79-23.71 33.62-23.71L33.62-23.71Q30.42-23.71 28.33-21.45 26.24-19.19 25.9-15.31ZM61.15 0.49L61.15 0.49Q57.49 0.49 54.79-1.2 52.09-2.88 50.62-5.97 49.14-9.06 49.14-13.26L49.14-13.26Q49.14-17.48 50.62-20.56 52.09-23.63 54.79-25.32 57.49-27 61.15-27L61.15-27Q64.06-27 65.96-26.16 67.87-25.32 68.99-24.02 70.11-22.73 70.67-21.39L70.67-21.39 67.91-19.8 67.6-19.8Q66.69-21.46 65.27-22.56 63.84-23.66 61.35-23.66L61.35-23.66Q58.83-23.66 57.12-22.42 55.41-21.19 54.56-18.86 53.71-16.53 53.71-13.26L53.71-13.26Q53.71-10.01 54.56-7.68 55.41-5.35 57.11-4.1 58.81-2.86 61.35-2.86L61.35-2.86Q63.84-2.86 65.25-3.92 66.67-4.98 67.57-6.64L67.57-6.64 67.89-6.64 70.67-5.13Q70.11-3.78 68.99-2.49 67.87-1.2 65.96-0.35 64.06 0.49 61.15 0.49ZM87.18 0.2L87.18 0.2Q84.37 0.2 82.65-0.23 80.93-0.66 80.03-1.61 79.14-2.56 78.83-4.17 78.51-5.79 78.51-8.15L78.51-8.15 78.51-23.71 74.33-23.71 74.46-26.17 78.63-26.39 79.26-33.54 82.95-33.81 82.95-26.42 89.98-26.42 89.98-23.71 82.95-23.71 82.95-8.13Q82.95-6.05 83.18-4.98 83.42-3.91 84.32-3.5 85.22-3.1 87.18-3.03L87.18-3.03Q87.83-3 88.49-2.98 89.15-2.95 89.81-2.93L89.81-2.93 89.62 0.2Q89.01 0.2 88.4 0.2 87.79 0.2 87.18 0.2ZM104.7 0.49L104.7 0.49Q101.53 0.49 98.81-0.57 96.08-1.64 94.45-3.69L94.45-3.69 96.77-5.93 97.11-5.93Q98.7-4.1 100.77-3.42 102.85-2.73 104.7-2.73L104.7-2.73Q107.24-2.73 108.63-3.91 110.02-5.08 110.02-7.5L110.02-7.5Q110.02-8.35 109.71-9.05 109.39-9.74 108.41-10.36 107.44-10.99 105.41-11.62L105.41-11.62 102.43-12.55Q99.23-13.55 97.7-14.65 96.16-15.75 95.68-17.04 95.2-18.33 95.2-19.9L95.2-19.9Q95.2-23.19 97.78-25.1 100.36-27 104.78-27L104.78-27Q106.92-27 108.61-26.5 110.29-26 111.54-25.13 112.78-24.27 113.56-23.14L113.56-23.14 111.15-21.17 110.9-21.17Q110-22.24 108.46-22.95 106.92-23.66 104.8-23.66L104.8-23.66Q102.94-23.66 101.8-23.21 100.65-22.75 100.11-21.9 99.57-21.04 99.57-19.87L99.57-19.87Q99.57-18.53 100.37-17.72 101.16-16.92 103.87-16.06L103.87-16.06 106.8-15.14Q109.98-14.11 111.53-12.94 113.08-11.77 113.58-10.46 114.08-9.16 114.08-7.67L114.08-7.67Q114.08-4.79 112.81-2.99 111.54-1.2 109.41-0.35 107.29 0.49 104.7 0.49ZM124.18 0.27L124.18 0.27Q122.79 0.27 122.17-0.51 121.55-1.29 121.55-2.73L121.55-2.73Q121.55-4.15 122.17-4.91 122.79-5.66 124.18-5.66L124.18-5.66Q125.5-5.66 126.13-4.91 126.77-4.15 126.77-2.73L126.77-2.73Q126.77-1.29 126.13-0.51 125.5 0.27 124.18 0.27ZM139.66 0.27L139.66 0.27Q138.27 0.27 137.64-0.51 137.02-1.29 137.02-2.73L137.02-2.73Q137.02-4.15 137.64-4.91 138.27-5.66 139.66-5.66L139.66-5.66Q140.98-5.66 141.61-4.91 142.25-4.15 142.25-2.73L142.25-2.73Q142.25-1.29 141.61-0.51 140.98 0.27 139.66 0.27ZM155.13 0.27L155.13 0.27Q153.74 0.27 153.12-0.51 152.5-1.29 152.5-2.73L152.5-2.73Q152.5-4.15 153.12-4.91 153.74-5.66 155.13-5.66L155.13-5.66Q156.45-5.66 157.09-4.91 157.72-4.15 157.72-2.73L157.72-2.73Q157.72-1.29 157.09-0.51 156.45 0.27 155.13 0.27Z" opacity="1" transform="matrix(1,0,0,1,0,0)" fill="#152232" class="wordmark-text-0" data-fill-palette-color="primary" id="text-0"></path></svg></g></svg></g><g transform="matrix(1,0,0,1,0,139.96593122372224)"><svg viewBox="0 0 395.52 78.63722609837032" height="78.63722609837032" width="395.52"><path d="M395.52 0l-13.106 39.319 13.106 39.318h-395.52l13.106-39.318-13.106-39.319z" data-fill-palette-color="tertiary" opacity="1" fill="#5ebc67"></path><g transform="matrix(1,0,0,1,75.54432000000001,22.44509886178292)"><svg width="244.43135999999996" viewBox="-0.1 -37.7 351.61 48.550000000000004" height="33.747028374804486" data-palette-color="#ffffff"><path d="M24.95 0L18.5 0 16.8-8.1 7.9-8.1 6.25 0-0.1 0 8.6-34.55 16.3-34.55 24.95 0ZM12.35-29.7L8.9-12.9 15.85-12.9 12.35-29.7ZM47.05-27.15Q49.2-27.15 50.95-26.43 52.7-25.7 54.3-24.15L54.3-24.15 51.65-20.65Q50.55-21.55 49.57-21.98 48.6-22.4 47.45-22.4L47.45-22.4Q45.2-22.4 44.05-20.28 42.9-18.15 42.9-13.1L42.9-13.1Q42.9-8.2 44.07-6.2 45.25-4.2 47.45-4.2L47.45-4.2Q48.55-4.2 49.45-4.6 50.35-5 51.55-5.85L51.55-5.85 54.3-2.3Q51.1 0.75 47.15 0.75L47.15 0.75Q42.05 0.75 39.22-2.73 36.4-6.2 36.4-13L36.4-13Q36.4-17.4 37.7-20.6 39-23.8 41.42-25.48 43.85-27.15 47.05-27.15L47.05-27.15ZM66.74-27.15Q71.74-27.15 74.52-23.65 77.29-20.15 77.29-13.25L77.29-13.25Q77.29-6.65 74.49-2.95 71.69 0.75 66.74 0.75L66.74 0.75Q61.79 0.75 58.99-2.88 56.19-6.5 56.19-13.25L56.19-13.25Q56.19-19.95 58.99-23.55 61.79-27.15 66.74-27.15L66.74-27.15ZM66.74-22.5Q64.59-22.5 63.59-20.38 62.59-18.25 62.59-13.25L62.59-13.25Q62.59-8.2 63.59-6.08 64.59-3.95 66.74-3.95L66.74-3.95Q68.89-3.95 69.89-6.08 70.89-8.2 70.89-13.25L70.89-13.25Q70.89-18.3 69.89-20.4 68.89-22.5 66.74-22.5L66.74-22.5ZM94.19-27.15Q97.04-27.15 98.69-25.1 100.34-23.05 100.34-19.6L100.34-19.6 100.34 0 94.19 0 94.19-18.9Q94.19-20.8 93.67-21.63 93.14-22.45 92.14-22.45L92.14-22.45Q90.04-22.45 87.99-18.5L87.99-18.5 87.99 0 81.84 0 81.84-26.45 87.19-26.45 87.64-23Q88.99-25.1 90.52-26.13 92.04-27.15 94.19-27.15L94.19-27.15ZM117.04-5L119.19-1.2Q116.74 0.75 113.44 0.75L113.44 0.75Q109.99 0.75 108.19-1.23 106.39-3.2 106.39-6.6L106.39-6.6 106.39-22 103.29-22 103.29-26.45 106.39-26.45 106.39-32.3 112.54-33.05 112.54-26.45 117.54-26.45 116.94-22 112.54-22 112.54-6.6Q112.54-4.2 114.59-4.2L114.59-4.2Q115.24-4.2 115.74-4.38 116.24-4.55 117.04-5L117.04-5ZM140.59-13.85Q140.59-13.4 140.44-11.3L140.44-11.3 126.79-11.3Q126.99-7.2 128.21-5.58 129.44-3.95 131.69-3.95L131.69-3.95Q133.24-3.95 134.49-4.48 135.74-5 137.19-6.15L137.19-6.15 139.74-2.65Q136.24 0.75 131.34 0.75L131.34 0.75Q126.14 0.75 123.36-2.85 120.59-6.45 120.59-13L120.59-13Q120.59-19.55 123.24-23.35 125.89-27.15 130.74-27.15L130.74-27.15Q135.39-27.15 137.99-23.78 140.59-20.4 140.59-13.85L140.59-13.85ZM134.59-15.3L134.59-15.65Q134.59-19.4 133.69-21.13 132.79-22.85 130.79-22.85L130.79-22.85Q128.94-22.85 127.96-21.18 126.99-19.5 126.79-15.3L126.79-15.3 134.59-15.3ZM152.23-27.15Q156.93-27.15 160.18-24.05L160.18-24.05 157.83-20.7Q156.43-21.7 155.18-22.2 153.93-22.7 152.63-22.7L152.63-22.7Q151.18-22.7 150.36-21.93 149.53-21.15 149.53-19.8L149.53-19.8Q149.53-18.45 150.46-17.63 151.38-16.8 154.18-15.7L154.18-15.7Q157.63-14.35 159.28-12.5 160.93-10.65 160.93-7.55L160.93-7.55Q160.93-3.7 158.23-1.48 155.53 0.75 151.38 0.75L151.38 0.75Q148.68 0.75 146.41-0.23 144.13-1.2 142.43-2.95L142.43-2.95 145.43-6.25Q148.23-3.8 151.13-3.8L151.13-3.8Q152.78-3.8 153.73-4.67 154.68-5.55 154.68-7.1L154.68-7.1Q154.68-8.25 154.28-8.97 153.88-9.7 152.88-10.33 151.88-10.95 149.88-11.7L149.88-11.7Q146.43-13.05 144.96-14.85 143.48-16.65 143.48-19.45L143.48-19.45Q143.48-22.8 145.86-24.98 148.23-27.15 152.23-27.15L152.23-27.15ZM175.93-5L178.08-1.2Q175.63 0.75 172.33 0.75L172.33 0.75Q168.88 0.75 167.08-1.23 165.28-3.2 165.28-6.6L165.28-6.6 165.28-22 162.18-22 162.18-26.45 165.28-26.45 165.28-32.3 171.43-33.05 171.43-26.45 176.43-26.45 175.83-22 171.43-22 171.43-6.6Q171.43-4.2 173.48-4.2L173.48-4.2Q174.13-4.2 174.63-4.38 175.13-4.55 175.93-5L175.93-5ZM202.68-27.15Q206.58-27.15 208.58-23.58 210.58-20 210.58-13.3L210.58-13.3Q210.58-6.8 208.3-3.03 206.03 0.75 201.98 0.75L201.98 0.75Q198.78 0.75 196.63-2.1L196.63-2.1 196.63 10.15 190.48 10.85 190.48-26.45 195.93-26.45 196.18-23.25Q197.48-25.25 199.08-26.2 200.68-27.15 202.68-27.15L202.68-27.15ZM200.33-3.95Q202.23-3.95 203.23-6.13 204.23-8.3 204.23-13.25L204.23-13.25Q204.23-18.45 203.38-20.5 202.53-22.55 200.73-22.55L200.73-22.55Q198.43-22.55 196.63-19.25L196.63-19.25 196.63-6.45Q198.23-3.95 200.33-3.95L200.33-3.95ZM220.77 0.75Q218.07 0.75 216.5-0.93 214.92-2.6 214.92-5.4L214.92-5.4 214.92-37.05 221.07-37.7 221.07-5.65Q221.07-5 221.37-4.6 221.67-4.2 222.27-4.2L222.27-4.2Q222.62-4.2 222.95-4.3 223.27-4.4 223.37-4.4L223.37-4.4 224.57-0.2Q222.87 0.75 220.77 0.75L220.77 0.75ZM244.52-6.4Q244.52-5.1 244.87-4.48 245.22-3.85 246.02-3.45L246.02-3.45 244.77 0.65Q242.72 0.4 241.5-0.45 240.27-1.3 239.67-3.05L239.67-3.05Q237.37 0.75 233.22 0.75L233.22 0.75Q229.92 0.75 227.97-1.48 226.02-3.7 226.02-7.4L226.02-7.4Q226.02-11.7 228.7-13.95 231.37-16.2 236.47-16.2L236.47-16.2 238.52-16.2 238.52-18.05Q238.52-20.55 237.65-21.58 236.77-22.6 234.82-22.6L234.82-22.6Q232.47-22.6 228.97-21.3L228.97-21.3 227.57-25.3Q229.57-26.2 231.72-26.68 233.87-27.15 235.82-27.15L235.82-27.15Q244.52-27.15 244.52-18.35L244.52-18.35 244.52-6.4ZM234.87-3.7Q237.27-3.7 238.52-7L238.52-7 238.52-12.55 237.07-12.55Q234.52-12.55 233.35-11.4 232.17-10.25 232.17-7.85L232.17-7.85Q232.17-5.8 232.87-4.75 233.57-3.7 234.87-3.7L234.87-3.7ZM261.47-5L263.62-1.2Q261.17 0.75 257.87 0.75L257.87 0.75Q254.42 0.75 252.62-1.23 250.82-3.2 250.82-6.6L250.82-6.6 250.82-22 247.72-22 247.72-26.45 250.82-26.45 250.82-32.3 256.97-33.05 256.97-26.45 261.97-26.45 261.37-22 256.97-22 256.97-6.6Q256.97-4.2 259.02-4.2L259.02-4.2Q259.67-4.2 260.17-4.38 260.67-4.55 261.47-5L261.47-5ZM275.87-33.05Q274.47-33.05 273.79-32.3 273.12-31.55 273.12-30L273.12-30 273.12-26.45 278.17-26.45 277.47-22 273.12-22 273.12 0 266.97 0 266.97-22 263.67-22 263.67-26.45 266.97-26.45 266.97-29.8Q266.97-33.4 269.07-35.55 271.17-37.7 275.07-37.7L275.07-37.7Q278.12-37.7 280.97-36.2L280.97-36.2 279.27-32.2Q277.52-33.05 275.87-33.05L275.87-33.05ZM290.36-27.15Q295.36-27.15 298.14-23.65 300.91-20.15 300.91-13.25L300.91-13.25Q300.91-6.65 298.11-2.95 295.31 0.75 290.36 0.75L290.36 0.75Q285.41 0.75 282.61-2.88 279.81-6.5 279.81-13.25L279.81-13.25Q279.81-19.95 282.61-23.55 285.41-27.15 290.36-27.15L290.36-27.15ZM290.36-22.5Q288.21-22.5 287.21-20.38 286.21-18.25 286.21-13.25L286.21-13.25Q286.21-8.2 287.21-6.08 288.21-3.95 290.36-3.95L290.36-3.95Q292.51-3.95 293.51-6.08 294.51-8.2 294.51-13.25L294.51-13.25Q294.51-18.3 293.51-20.4 292.51-22.5 290.36-22.5L290.36-22.5ZM317.11-27.1Q318.26-27.1 319.16-26.75L319.16-26.75 318.16-20.85Q317.16-21.1 316.31-21.1L316.31-21.1Q314.41-21.1 313.31-19.45 312.21-17.8 311.61-14.55L311.61-14.55 311.61 0 305.46 0 305.46-26.45 310.81-26.45 311.26-21.85Q313.11-27.1 317.11-27.1L317.11-27.1ZM345.66-27.15Q348.31-27.15 349.91-25.1 351.51-23.05 351.51-19.6L351.51-19.6 351.51 0 345.46 0 345.46-18.95Q345.46-20.85 344.96-21.68 344.46-22.5 343.51-22.5L343.51-22.5Q341.56-22.5 339.76-18.8L339.76-18.8 339.76 0 333.76 0 333.76-18.95Q333.76-22.5 331.86-22.5L331.86-22.5Q329.81-22.5 328.06-18.8L328.06-18.8 328.06 0 322.01 0 322.01-26.45 327.36-26.45 327.76-23.05Q330.36-27.15 334.01-27.15L334.01-27.15Q335.86-27.15 337.21-26 338.56-24.85 339.26-22.75L339.26-22.75Q341.91-27.15 345.66-27.15L345.66-27.15Z" opacity="1" transform="matrix(1,0,0,1,0,0)" fill="#ffffff" class="slogan-text-1" data-fill-palette-color="quaternary" id="text-1"></path></svg></g></svg></g></svg></g></svg></g><g transform="matrix(1,0,0,1,417.9650988617829,17.682670968346656)"><svg viewBox="0 0 183.32352 183.23781538539924" height="183.23781538539924" width="183.32352"><g><svg xmlns="http://www.w3.org/2000/svg" xmlns:xlink="http://www.w3.org/1999/xlink" version="1.1" x="0" y="0" viewBox="0.7607695154586737 0.7749999999999999 30.439230484541326 30.425" enable-background="new 0 0 32 32" xml:space="preserve" height="183.23781538539924" width="183.32352" class="icon-icon-0" data-fill-palette-color="accent" id="icon-0"><g fill="#5ebc67" data-fill-palette-color="accent"><g fill="#5ebc67" data-fill-palette-color="accent"><path fill="#5ebc67" d="M1.5 31.2C1.3 31.2 1.1 31.1 1 31 0.8 30.8 0.7 30.6 0.8 30.3L4.5 11.2C4.6 10.9 4.8 10.6 5.1 10.6L14.7 9.3C14.9 9.3 15.2 9.3 15.3 9.5L22.5 16.7C22.7 16.9 22.7 17.1 22.7 17.3L21.4 26.9C21.4 27.2 21.1 27.5 20.8 27.5L1.6 31.2zM5.8 12.1L2.4 29.6 19.9 26.2 21.1 17.5 14.4 10.8z" data-fill-palette-color="accent"></path></g><g fill="#5ebc67" data-fill-palette-color="accent"><rect x="5.2" y="19.8" transform="matrix(-0.7071 -0.7071 0.7071 -0.7071 -8.3465 48.7211)" fill="#5ebc67" width="1.5" height="12.6" data-fill-palette-color="accent"></rect></g><g fill="#5ebc67" data-fill-palette-color="accent"><path fill="#5ebc67" d="M12 23.1C11.2 23.1 10.4 22.8 9.8 22.2S8.9 20.9 8.9 20C8.9 19.2 9.2 18.4 9.8 17.8 11 16.6 13 16.6 14.1 17.8 15.3 19 15.3 20.9 14.1 22.1 13.6 22.8 12.8 23.1 12 23.1M12 18.4C11.6 18.4 11.2 18.6 10.9 18.9S10.4 19.6 10.4 20 10.6 20.8 10.9 21.1C11.5 21.7 12.5 21.7 13.1 21.1S13.7 19.5 13.1 18.9C12.8 18.6 12.4 18.4 12 18.4" data-fill-palette-color="accent"></path></g><g fill="#5ebc67" data-fill-palette-color="accent"><path fill="#5ebc67" d="M23.8 18.7C22.9 18.7 22 18.3 21.4 17.7L14.3 10.6C13 9.3 13 7.1 14.3 5.8L19.1 1C19.4 0.7 19.9 0.7 20.2 1L31 11.8C31.1 11.9 31.2 12.1 31.2 12.3S31.1 12.7 31 12.8L26.1 17.7C25.5 18.4 24.7 18.7 23.8 18.7M19.7 2.6L15.4 6.9C14.7 7.6 14.7 8.9 15.4 9.6L22.5 16.7C23.2 17.4 24.5 17.4 25.2 16.7L29.5 12.4z" data-fill-palette-color="accent"></path></g></g></svg></g></svg></g></svg></g><defs></defs></svg><rect width="395.52" height="143.79437440160314" fill="none" stroke="none" visibility="hidden"></rect></g></svg></g></svg>