<svg xmlns="http://www.w3.org/2000/svg" version="1.1" xmlns:xlink="http://www.w3.org/1999/xlink" xmlns:svgjs="http://svgjs.dev/svgjs" width="1500" height="1500" viewBox="0 0 1500 1500"><rect width="1500" height="1500" fill="#cd4b27"></rect><g transform="matrix(0.6666666666666666,0,0,0.6666666666666666,250.00007343750008,187.66666666666674)"><svg viewBox="0 0 320 360" data-background-color="#cd4b27" preserveAspectRatio="xMidYMid meet" height="1687" width="1500" xmlns="http://www.w3.org/2000/svg" xmlns:xlink="http://www.w3.org/1999/xlink"><g id="tight-bounds" transform="matrix(1,0,0,1,0.000023499999997511622,0)"><svg viewBox="0 0 320 360" height="360" width="320"><g><svg></svg></g><g><svg viewBox="0 0 320 360" height="360" width="320"><g><path transform="translate(-74.99272,-51.79039) scale(4.65793,4.65793)" d="M20.6 59.9l0.8 1-0.4-1.3c-0.1-0.6-0.8 0.1-0.4 0.3M21.5 59.3c0.3 0.5 0.6 1 0.6 1.5 0 0.7 0.6 1 1.1 1.2-0.7-0.8-1.1-3-1.7-2.7M59.9 16.9c1.7 0 3.3-0.2 5.1 0.2 4.4 1.1 8.1 3.3 10.6 6.4l7 11.2c0.3 2.8 0.9 5.9 0.8 9.3 0.7 0 0.6-1 1.4-1.2-0.8 2-1.2 4.5-1.4 7.4-0.5-1.6 0-4 0.1-5.3-0.7 1.1-1.1 0.3-1.1-0.2 0.1-0.8-0.3-0.7-0.6-1-1.1-1-1.8-2.1-2.6-3.8 0.5-1.3 0.6-3.2-1-4.2-0.5-0.3-1.1-0.8-1.4-1.6-0.4-1.1-1.1-2.4-0.9-4.1 0.1-0.5-1.5 1.1-2.4 0.4-3.9-2.7-7.8-5.8-12.5-8.4-2.5 0-4.3-0.9-5.2-2-0.8-1-0.2-2.3 1-2.4 0.7 0 1.5-0.2 2.1 0.2 0.1-0.4 0.5-0.9 1-0.9M50 14.6l0.2 0.1c1 0.2 1.5 1.6 2.6 1.1 0 0.7 0.1 1.4-0.1 1.9-0.3 0.8-1.2 0.8-1.9 0.8-6.7-0.4-10.6 2.4-14.7 4.8-1.1 0.7-2.3 1.2-3.2 2.1-4.3 4-9 7.7-10.1 15.1l-0.9 8.2c-0.1 0.9-1.1 1.8-0.9 2.9l0.7 4.9c-0.7-0.7-1.1 0.2-0.9 0.6 0.1 0.3 0.5 1.3 1.1 0.4 0.8 1.5 1.6 4.4 2.7 5.7 3.4 4 7.8 7.6 11.4 11.2 0.9-0.2 1.6-0.2 1.8-0.8 0.3 0.6-0.3 1.2-0.8 1.3 1.6 1 3.4 1.9 5.8 2.1 3.1 0.2 6 0.7 8.7 1.4 1.4-0.4 2.8-0.6 4.3-0.7 0.5 0 0.8-0.8 1.4-1l0.1-1c0.6 0.9 0.5-0.3 0.1-0.9 0.7 0.6 0.9 1.1 1.2 1.5 0-0.3 0.8-1.4 0.8-0.1l0.2-1.3c0.3-0.2 0.4 1.1 0.7 0.2 0.3-0.9 0.9-0.2 1.5-0.5-0.2 0.4-0.1 1.2 0.6 0.7l0.8-0.7c0.5 1.2 1.3 0.7 1.7 0.5 4.4-2.8 8.8-6.1 13-9.4l-0.1 1.3 0.5-1.6c0.5 0.5 0.9 0.1 1.1-0.2 0.6-1 1.4-2 2.7-2.9-1.6 4.3-3.5 7.7-5.9 10.5l-1 1.2c0 0.7-0.2 1.6-1 1.7-0.4 0.1-1.2-0.2-1.8 0.4-0.3 0.4 0.7 1.2-0.1 0.6-0.7-0.5-1.4 0-2.2 0.2-0.6 0.2 0.4 0.8 0.6 1.2 0.2 0.4 0.4 0.8 0.3 1.3l-1.1-1.2c-1.3 0.7-2.1 2-3.2 3-0.5 0.4-0.3 1.1-0.3 1.7-0.7 0-1.5-0.2-1.9 0.2-0.3 0.4-0.2 1-0.2 1.6-1-0.1-1.1-1.6-2-1.3-0.9 0.2-1.9 0.3-2.7 0.8 0.6 1.2-1 0.5-0.8 0.7-1.5-0.9-2.8-1.6-4.4-1-3.4-1.1-7.6-0.6-10.7-0.2 0-0.5 0.1-1-0.1-1.1-0.2 0.5-0.8 0.3-0.7 0.3-1.9-1.3-3.8-2.1-5.8-3.2-1.8 0.2-3.5-0.7-4-1.2-1.4-1.3-3-0.6-4.3-0.9-2.8-0.7-3.8-3.6-4.1-5.6-0.2-1-1-1.4-1.3-1.3-1.3-4.2-3.3-8-4.9-11.9-0.4-1-0.3-2-0.3-3.1 0.5 0.2 1 0.1 0.9-0.6-0.5-3.3-1.7-5.8-3-8.2 0.7-3.4 0.8-7.4 2.4-10.4 1.4-2.7 4-4.1 5.8-6.4 0.6-0.8 0.6-1.9 1.2-2.6 2-2 4-4.1 6.2-5.9 1-0.8 2.2 0 3.7-0.3 0.5-1.8 2.5-3.4 4.4-2.9 0.8 0.2 2.4-1.9 2.9-2.1 0.8-0.3 0.4 0.8 0.4 1.5 1.9-1.5 4.5-2.3 6.9-3.2" fill="#eabba7" fill-rule="nonzero" stroke="none" stroke-width="1" stroke-linecap="butt" stroke-linejoin="miter" stroke-miterlimit="10" stroke-dasharray="" stroke-dashoffset="0" font-family="none" font-weight="none" font-size="none" text-anchor="none" style="mix-blend-mode: normal" data-fill-palette-color="tertiary"></path></g><g transform="matrix(1,0,0,1,64,144.00077514750114)"><svg viewBox="0 0 192 71.9984497049977" height="71.9984497049977" width="192"><g><svg viewBox="0 0 326.97024028235296 122.6112" height="71.9984497049977" width="192"><g transform="matrix(1,0,0,1,134.97024028235296,12.387248105241753)"><svg viewBox="0 0 192 97.83670378951649" height="97.83670378951649" width="192"><g id="textblocktransform"><svg viewBox="0 0 192 97.83670378951649" height="97.83670378951649" width="192" id="textblock"><g><svg viewBox="0 0 192 69.10588235294118" height="69.10588235294118" width="192"><g transform="matrix(1,0,0,1,0,0)"><svg width="192" viewBox="1.8 -37.05 135.98999999999998 48.949999999999996" height="69.10588235294118" data-palette-color="#eabba7"><path d="M38.25-6.25L40.8-2.9Q37.65 0.7 33.5 0.7L33.5 0.7Q29.15 0.7 26.18-2.45 23.2-5.6 21.35-12.15L21.35-12.15 20.55-14.65 13.4-14.65 13.4-4.15 19.7-4.15 19.7 0 1.8 0 1.8-4.1 8.25-4.1 8.25-30.15 1.8-30.15 1.8-34.3 21.7-34.3Q27.55-34.3 30.95-31.65 34.35-29 34.35-24.45L34.35-24.45Q34.35-20.7 31.93-18.13 29.5-15.55 25.1-14.9L25.1-14.9 26-12.45Q27.55-8.05 29.45-6.05 31.35-4.05 33.75-4.05L33.75-4.05Q35.25-4.05 36.3-4.65 37.35-5.25 38.25-6.25L38.25-6.25ZM13.4-30.15L13.4-18.55 21.85-18.55Q25.05-18.55 27.15-20.13 29.25-21.7 29.25-24.45L29.25-24.45Q29.25-27.1 27.18-28.63 25.1-30.15 21.85-30.15L21.85-30.15 13.4-30.15ZM54.3 0.7Q50.85 0.7 47.85-0.85 44.85-2.4 43.07-5.25 41.3-8.1 41.3-11.75L41.3-11.75Q41.3-15.45 43.07-18.28 44.85-21.1 47.85-22.65 50.85-24.2 54.3-24.2L54.3-24.2Q57.7-24.2 60.67-22.65 63.65-21.1 65.45-18.25 67.25-15.4 67.25-11.75L67.25-11.75Q67.25-8.1 65.5-5.25 63.75-2.4 60.77-0.85 57.8 0.7 54.3 0.7L54.3 0.7ZM54.3-3.25Q56.55-3.25 58.35-4.3 60.15-5.35 61.17-7.28 62.2-9.2 62.2-11.75L62.2-11.75Q62.2-14.3 61.17-16.23 60.15-18.15 58.35-19.2 56.55-20.25 54.3-20.25L54.3-20.25Q50.85-20.25 48.62-17.93 46.4-15.6 46.4-11.75L46.4-11.75Q46.4-7.9 48.62-5.58 50.85-3.25 54.3-3.25L54.3-3.25ZM100.2-23.55L100.2-19.6 96.5-19.6 86.59 2.6Q84.5 7.25 81.87 9.58 79.25 11.9 75.75 11.9L75.75 11.9Q73.8 11.9 72.22 11.28 70.65 10.65 68.8 9.45L68.8 9.45 70.8 5.7Q73.34 7.55 75.75 7.55L75.75 7.55Q77.9 7.55 79.59 6.18 81.3 4.8 82.59 1.8L82.59 1.8 82.95 1 72.84-19.6 68.95-19.6 68.95-23.55 82.15-23.55 82.15-19.95 78.09-19.95 85.2-4.15 92.15-19.95 88.3-19.95 88.3-23.55 100.2-23.55ZM106.59-37.05L111.84-35.95 108.09-23.25 105.04-23.75 106.59-37.05ZM128.24-13.9Q132.84-12.65 135.32-10.78 137.79-8.9 137.79-5.75L137.79-5.75Q137.79-2.85 135.34-1.07 132.89 0.7 129.29 0.7L129.29 0.7Q126.79 0.7 124.37-0.18 121.94-1.05 120.04-2.6L120.04-2.6 120.04 0.05 116.24 0.05 116.24-7.6 118.39-7.8Q120.29-5.65 123.17-4.13 126.04-2.6 128.79-2.6L128.79-2.6Q130.64-2.6 131.69-3.3 132.74-4 132.74-5.3L132.74-5.3Q132.74-6.8 131.09-7.78 129.44-8.75 125.69-9.75L125.69-9.75Q121.19-10.95 118.77-12.78 116.34-14.6 116.34-17.55L116.34-17.55Q116.34-19.4 117.37-20.93 118.39-22.45 120.27-23.33 122.14-24.2 124.59-24.2L124.59-24.2Q126.99-24.2 129.17-23.4 131.34-22.6 132.94-21.15L132.94-21.15 132.94-23.55 136.69-23.55 136.69-15.95 134.49-15.7Q133.09-18.05 130.67-19.48 128.24-20.9 125.84-20.9L125.84-20.9Q123.89-20.9 122.64-20.13 121.39-19.35 121.39-18.1L121.39-18.1Q121.39-16.75 123.04-15.83 124.69-14.9 128.24-13.9L128.24-13.9Z" opacity="1" transform="matrix(1,0,0,1,0,0)" fill="#eabba7" class="wordmark-text-0" data-fill-palette-color="primary" id="text-0"></path></svg></g></svg></g><g transform="matrix(1,0,0,1,0,85.42012263529412)"><svg viewBox="0 0 112.72319999999999 12.416581154222365" height="12.416581154222365" width="112.72319999999999"><g transform="matrix(1,0,0,1,0,0)"><svg width="112.72319999999999" viewBox="1 -37.99 449.23 49.49" height="12.416581154222365" data-palette-color="#eabba7"><path d="M11.06 0L11.06-4.2 14.45-4.2 14.45-33.01 6.01-33.01 6.01-27.25 1-27.25 1-37.01 34.01-37.01 34.01-27.25 29-27.25 29-33.01 19.24-33.01 19.24-4.2 23.05-4.2 23.05 0 11.06 0ZM31.1-12.65L31.1-12.65Q31.13-15.65 32.07-18.12 33.01-20.58 34.69-22.35 36.37-24.12 38.69-25.07 41.01-26.03 43.8-26.03L43.8-26.03Q46.6-26.03 48.94-25.07 51.27-24.12 52.93-22.38 54.59-20.63 55.52-18.16 56.44-15.7 56.44-12.7L56.44-12.7Q56.44-9.74 55.52-7.26 54.59-4.79 52.93-3 51.27-1.22 48.94-0.23 46.6 0.76 43.8 0.76L43.8 0.76Q40.94 0.76 38.62-0.22 36.3-1.2 34.64-2.97 32.98-4.74 32.05-7.2 31.13-9.67 31.1-12.65ZM35.91-12.65L35.91-12.65Q35.91-10.47 36.53-8.72 37.16-6.96 38.24-5.73 39.33-4.49 40.76-3.82 42.19-3.15 43.8-3.15L43.8-3.15Q45.48-3.15 46.93-3.81 48.39-4.47 49.46-5.7 50.53-6.93 51.14-8.69 51.76-10.45 51.76-12.65L51.76-12.65Q51.76-14.94 51.14-16.72 50.53-18.51 49.47-19.7 48.41-20.9 46.95-21.51 45.48-22.12 43.8-22.12L43.8-22.12Q42.19-22.12 40.76-21.51 39.33-20.9 38.24-19.7 37.16-18.51 36.53-16.72 35.91-14.94 35.91-12.65ZM61.01-12.65L61.01-12.65Q61.03-15.65 61.97-18.12 62.91-20.58 64.59-22.35 66.28-24.12 68.6-25.07 70.92-26.03 73.7-26.03L73.7-26.03Q76.51-26.03 78.84-25.07 81.17-24.12 82.83-22.38 84.49-20.63 85.42-18.16 86.35-15.7 86.35-12.7L86.35-12.7Q86.35-9.74 85.42-7.26 84.49-4.79 82.83-3 81.17-1.22 78.84-0.23 76.51 0.76 73.7 0.76L73.7 0.76Q70.84 0.76 68.53-0.22 66.21-1.2 64.55-2.97 62.89-4.74 61.96-7.2 61.03-9.67 61.01-12.65ZM65.82-12.65L65.82-12.65Q65.82-10.47 66.44-8.72 67.06-6.96 68.15-5.73 69.23-4.49 70.66-3.82 72.09-3.15 73.7-3.15L73.7-3.15Q75.39-3.15 76.84-3.81 78.29-4.47 79.37-5.7 80.44-6.93 81.05-8.69 81.66-10.45 81.66-12.65L81.66-12.65Q81.66-14.94 81.05-16.72 80.44-18.51 79.38-19.7 78.32-20.9 76.85-21.51 75.39-22.12 73.7-22.12L73.7-22.12Q72.09-22.12 70.66-21.51 69.23-20.9 68.15-19.7 67.06-18.51 66.44-16.72 65.82-14.94 65.82-12.65ZM91.06-33.79L91.06-37.99 99.26-37.99 99.26-4.2 103.07-4.2 103.07 0 91.06 0 91.06-4.2 94.72-4.2 94.72-33.79 91.06-33.79ZM122.11-18.51Q122.11-19.53 121.63-20.25 121.16-20.97 120.4-21.42 119.64-21.88 118.72-22.08 117.79-22.29 116.91-22.29L116.91-22.29Q115.93-22.29 115.11-22.07 114.3-21.85 113.71-21.44 113.12-21.02 112.8-20.42 112.47-19.82 112.47-19.09L112.47-19.09Q112.47-17.82 113.23-17.08 114-16.33 115.81-15.7L115.81-15.7 120.67-13.99Q123.79-12.94 125.23-11.13 126.67-9.33 126.67-6.81L126.67-6.81Q126.67-5.13 126-3.72 125.33-2.32 124.1-1.33 122.87-0.34 121.13 0.21 119.4 0.76 117.28 0.76L117.28 0.76Q114.32 0.76 112.47-0.2 110.61-1.15 109.61-2.71L109.61-2.71 107.07-2.71 107.07-6.91 112.12-6.91Q112.12-5.86 112.58-5.11 113.03-4.37 113.77-3.91 114.52-3.44 115.46-3.22 116.4-3 117.37-3L117.37-3Q118.32-3 119.2-3.23 120.08-3.47 120.75-3.92 121.43-4.37 121.82-5 122.21-5.64 122.21-6.45L122.21-6.45Q122.21-7.67 121.41-8.52 120.62-9.38 118.72-10.06L118.72-10.06 113.88-11.87Q110.93-12.92 109.5-14.54 108.07-16.16 108.07-18.6L108.07-18.6Q108.07-20.21 108.67-21.58 109.27-22.95 110.4-23.94 111.54-24.93 113.17-25.49 114.81-26.05 116.91-26.05L116.91-26.05Q119.62-26.05 121.45-25.29 123.28-24.54 124.75-22.71L124.75-22.71 127.11-22.71 127.11-18.51 122.11-18.51ZM129.31 0Q129.31 0 129.31 0ZM142.69-21.09L142.69-25.29 150.74-25.29 150.74-22.34 150.79-22.34Q151.62-23.05 152.54-23.67 153.45-24.29 154.45-24.76 155.45-25.22 156.54-25.49 157.63-25.76 158.8-25.76L158.8-25.76Q161.53-25.76 163.51-24.74 165.49-23.73 166.56-21.58L166.56-21.58Q167.49-22.41 168.52-23.18 169.54-23.95 170.65-24.51 171.76-25.07 172.98-25.42 174.2-25.76 175.52-25.76L175.52-25.76Q177.57-25.76 179.21-25.2 180.84-24.63 181.99-23.49 183.14-22.34 183.74-20.54 184.34-18.75 184.34-16.31L184.34-16.31 184.34-4.2 187.85-4.2 187.85 0 176.03 0 176.03-4.2 179.6-4.2 179.6-15.75Q179.6-18.65 178.13-20.15 176.67-21.66 173.91-21.66L173.91-21.66Q172.28-21.66 170.57-20.87 168.86-20.09 167.64-18.9L167.64-18.9 167.64-4.2 171.13-4.2 171.13 0 159.34 0 159.34-4.2 162.9-4.2 162.9-15.75Q162.9-18.65 161.42-20.15 159.95-21.66 157.19-21.66L157.19-21.66Q155.6-21.66 153.99-20.9 152.38-20.14 150.94-19.02L150.94-19.02 150.94-4.2 154.5-4.2 154.5 0 142.69 0 142.69-4.2 146.2-4.2 146.2-21.09 142.69-21.09ZM207.6 0L207.6-2.34Q206.16-1 204.41-0.15 202.67 0.71 200.45 0.71L200.45 0.71Q198.59 0.71 197.04 0.12 195.49-0.46 194.37-1.48 193.24-2.49 192.62-3.83 192-5.18 192-6.69L192-6.69Q192-8.3 192.48-9.55 192.95-10.79 193.74-11.71 194.54-12.62 195.6-13.24 196.66-13.87 197.82-14.25 198.98-14.62 200.19-14.78 201.4-14.94 202.5-14.94L202.5-14.94Q204.25-14.94 205.45-14.83 206.65-14.72 207.62-14.53L207.62-14.53 207.65-16.6Q207.65-17.94 207.26-18.93 206.87-19.92 206.16-20.57 205.45-21.22 204.46-21.53 203.47-21.85 202.25-21.85L202.25-21.85Q201.11-21.85 200.06-21.69 199.01-21.53 198.09-21.28 197.17-21.02 196.41-20.69 195.64-20.36 195.1-20L195.1-20 193.61-23.14Q194.51-23.73 195.59-24.23 196.66-24.73 197.85-25.09 199.03-25.44 200.26-25.65 201.5-25.85 202.69-25.85L202.69-25.85Q204.89-25.85 206.65-25.33 208.41-24.8 209.63-23.71 210.85-22.61 211.51-20.91 212.17-19.21 212.17-16.85L212.17-16.85 212.14-4.2 214.95-4.2 214.95 0 207.6 0ZM201.45-3.1L201.45-3.1Q202.35-3.1 203.25-3.32 204.16-3.54 204.96-3.92 205.77-4.3 206.45-4.8 207.14-5.3 207.6-5.83L207.6-5.83 207.62-11.55 202.35-11.55Q201.03-11.55 199.95-11.25 198.86-10.96 198.07-10.4 197.27-9.84 196.83-9.01 196.39-8.18 196.39-7.1L196.39-7.1Q196.39-6.1 196.76-5.36 197.13-4.61 197.8-4.11 198.47-3.61 199.4-3.36 200.32-3.1 201.45-3.1ZM234.99-33.79L234.99-37.99 242.97-37.99 242.97-4.2 246.68-4.2 246.68 0 238.43 0 238.43-2.08Q237.21-0.83 235.6-0.13 233.99 0.56 231.94 0.56L231.94 0.56Q229.37 0.56 227.17-0.33 224.96-1.22 223.33-2.94 221.71-4.66 220.79-7.17 219.88-9.67 219.88-12.89L219.88-12.89Q219.88-15.82 220.76-18.23 221.64-20.63 223.25-22.33 224.86-24.02 227.13-24.96 229.4-25.9 232.18-25.9L232.18-25.9Q234.01-25.9 235.53-25.5 237.04-25.1 238.43-24.1L238.43-24.1 238.43-33.79 234.99-33.79ZM232.52-3.39L232.52-3.39Q234.55-3.39 235.92-3.99 237.28-4.59 238.43-5.79L238.43-5.79 238.43-19.95Q237.21-20.97 235.62-21.44 234.04-21.9 232.38-21.9L232.38-21.9Q230.77-21.9 229.35-21.3 227.93-20.7 226.87-19.56 225.81-18.41 225.2-16.75 224.59-15.09 224.59-12.94L224.59-12.94Q224.59-10.6 225.18-8.81 225.76-7.03 226.81-5.82 227.86-4.61 229.33-4 230.79-3.39 232.52-3.39ZM273.54-12.06L255.32-12.06Q255.32-10.99 255.48-10.1 255.64-9.2 255.93-8.4L255.93-8.4Q256.84-5.96 258.83-4.72 260.82-3.49 263.33-3.49L263.33-3.49Q265.31-3.49 267.18-4.04 269.04-4.59 271.1-5.76L271.1-5.76 272.93-2.66Q270.44-0.95 267.92-0.12 265.41 0.71 262.7 0.71L262.7 0.71Q260.13 0.71 257.95-0.15 255.76-1 254.19-2.69 252.61-4.37 251.72-6.88 250.83-9.4 250.83-12.74L250.83-12.74Q250.83-15.45 251.59-17.86 252.35-20.26 253.85-22.06 255.35-23.85 257.57-24.9 259.79-25.95 262.75-25.95L262.75-25.95Q265.6-25.95 267.52-25.09 269.44-24.22 270.64-22.79 271.85-21.36 272.48-19.53 273.1-17.7 273.34-15.8L273.34-15.8Q273.46-14.87 273.5-13.92 273.54-12.96 273.54-12.06L273.54-12.06ZM262.43-22.14L262.43-22.14Q260.84-22.14 259.66-21.69 258.47-21.24 257.64-20.4 256.81-19.56 256.31-18.33 255.81-17.11 255.57-15.6L255.57-15.6 268.68-15.6Q268.58-17.02 268.23-18.21 267.87-19.41 267.14-20.29 266.41-21.17 265.26-21.66 264.11-22.14 262.43-22.14ZM277.27 0Q277.27 0 277.27 0ZM305.25-18.51Q305.25-19.53 304.77-20.25 304.29-20.97 303.54-21.42 302.78-21.88 301.85-22.08 300.92-22.29 300.05-22.29L300.05-22.29Q299.07-22.29 298.25-22.07 297.43-21.85 296.85-21.44 296.26-21.02 295.93-20.42 295.6-19.82 295.6-19.09L295.6-19.09Q295.6-17.82 296.37-17.08 297.14-16.33 298.95-15.7L298.95-15.7 303.81-13.99Q306.93-12.94 308.37-11.13 309.81-9.33 309.81-6.81L309.81-6.81Q309.81-5.13 309.14-3.72 308.47-2.32 307.24-1.33 306-0.34 304.27 0.21 302.54 0.76 300.41 0.76L300.41 0.76Q297.46 0.76 295.6-0.2 293.75-1.15 292.75-2.71L292.75-2.71 290.21-2.71 290.21-6.91 295.26-6.91Q295.26-5.86 295.71-5.11 296.16-4.37 296.91-3.91 297.65-3.44 298.59-3.22 299.53-3 300.51-3L300.51-3Q301.46-3 302.34-3.23 303.22-3.47 303.89-3.92 304.56-4.37 304.95-5 305.34-5.64 305.34-6.45L305.34-6.45Q305.34-7.67 304.55-8.52 303.76-9.38 301.85-10.06L301.85-10.06 297.02-11.87Q294.06-12.92 292.64-14.54 291.21-16.16 291.21-18.6L291.21-18.6Q291.21-20.21 291.81-21.58 292.4-22.95 293.54-23.94 294.67-24.93 296.31-25.49 297.95-26.05 300.05-26.05L300.05-26.05Q302.76-26.05 304.59-25.29 306.42-24.54 307.88-22.71L307.88-22.71 310.25-22.71 310.25-18.51 305.25-18.51ZM314.69-21.09L314.69-25.29 322.94-25.29 322.94-4.2 326.75-4.2 326.75 0 314.74 0 314.74-4.2 318.35-4.2 318.35-21.09 314.69-21.09ZM317.5-34.25L317.5-34.25Q317.5-34.89 317.76-35.46 318.01-36.04 318.44-36.46 318.87-36.89 319.45-37.15 320.04-37.4 320.7-37.4L320.7-37.4Q321.33-37.4 321.91-37.15 322.48-36.89 322.91-36.46 323.33-36.04 323.59-35.46 323.85-34.89 323.85-34.25L323.85-34.25Q323.85-33.59 323.59-33.01 323.33-32.42 322.91-31.97 322.48-31.52 321.91-31.26 321.33-31.01 320.7-31.01L320.7-31.01Q320.04-31.01 319.45-31.26 318.87-31.52 318.44-31.97 318.01-32.42 317.76-33.01 317.5-33.59 317.5-34.25ZM330.92-21.09L330.92-25.29 338.98-25.29 338.98-22.34 339.03-22.34Q339.86-23.05 340.78-23.67 341.69-24.29 342.69-24.76 343.69-25.22 344.78-25.49 345.87-25.76 347.04-25.76L347.04-25.76Q349.77-25.76 351.75-24.74 353.73-23.73 354.8-21.58L354.8-21.58Q355.73-22.41 356.75-23.18 357.78-23.95 358.89-24.51 360-25.07 361.22-25.42 362.44-25.76 363.76-25.76L363.76-25.76Q365.81-25.76 367.45-25.2 369.08-24.63 370.23-23.49 371.38-22.34 371.98-20.54 372.57-18.75 372.57-16.31L372.57-16.31 372.57-4.2 376.09-4.2 376.09 0 364.27 0 364.27-4.2 367.84-4.2 367.84-15.75Q367.84-18.65 366.37-20.15 364.91-21.66 362.15-21.66L362.15-21.66Q360.51-21.66 358.81-20.87 357.1-20.09 355.88-18.9L355.88-18.9 355.88-4.2 359.37-4.2 359.37 0 347.57 0 347.57-4.2 351.14-4.2 351.14-15.75Q351.14-18.65 349.66-20.15 348.19-21.66 345.43-21.66L345.43-21.66Q343.84-21.66 342.23-20.9 340.62-20.14 339.18-19.02L339.18-19.02 339.18-4.2 342.74-4.2 342.74 0 330.92 0 330.92-4.2 334.44-4.2 334.44-21.09 330.92-21.09ZM379.97-21.09L379.97-25.29 388.03-25.29 388.03-23.19Q389.64-24.44 391.54-25.17 393.45-25.9 395.47-25.9L395.47-25.9Q397.96-25.9 400.04-24.98 402.11-24.05 403.61-22.36 405.12-20.68 405.95-18.32 406.78-15.97 406.78-13.11L406.78-13.11Q406.78-10.06 405.85-7.54 404.92-5.03 403.27-3.23 401.63-1.44 399.35-0.44 397.08 0.56 394.37 0.56L394.37 0.56Q392.45 0.56 390.94 0.16 389.44-0.24 388.08-0.88L388.08-0.88 388.08 7.3 392.03 7.3 392.03 11.5 380.02 11.5 380.02 7.3 383.49 7.3 383.49-21.09 379.97-21.09ZM394.28-21.9L394.28-21.9Q392.52-21.9 390.9-21.19 389.27-20.48 388.08-19.24L388.08-19.24 388.08-5.54Q388.88-4.71 390.38-4.05 391.88-3.39 394.13-3.39L394.13-3.39Q395.69-3.39 397.13-4 398.57-4.61 399.67-5.82 400.77-7.03 401.43-8.81 402.09-10.6 402.09-12.94L402.09-12.94Q402.09-15.09 401.47-16.75 400.84-18.41 399.78-19.56 398.72-20.7 397.3-21.3 395.89-21.9 394.28-21.9ZM411.27-33.79L411.27-37.99 419.47-37.99 419.47-4.2 423.28-4.2 423.28 0 411.27 0 411.27-4.2 414.93-4.2 414.93-33.79 411.27-33.79ZM450.23-12.06L432.02-12.06Q432.02-10.99 432.17-10.1 432.33-9.2 432.63-8.4L432.63-8.4Q433.53-5.96 435.52-4.72 437.51-3.49 440.02-3.49L440.02-3.49Q442-3.49 443.87-4.04 445.74-4.59 447.79-5.76L447.79-5.76 449.62-2.66Q447.13-0.95 444.61-0.12 442.1 0.71 439.39 0.71L439.39 0.71Q436.83 0.71 434.64-0.15 432.46-1 430.88-2.69 429.31-4.37 428.41-6.88 427.52-9.4 427.52-12.74L427.52-12.74Q427.52-15.45 428.28-17.86 429.04-20.26 430.54-22.06 432.04-23.85 434.26-24.9 436.48-25.95 439.44-25.95L439.44-25.95Q442.29-25.95 444.21-25.09 446.13-24.22 447.34-22.79 448.54-21.36 449.17-19.53 449.79-17.7 450.03-15.8L450.03-15.8Q450.16-14.87 450.19-13.92 450.23-12.96 450.23-12.06L450.23-12.06ZM439.12-22.14L439.12-22.14Q437.53-22.14 436.35-21.69 435.17-21.24 434.34-20.4 433.5-19.56 433-18.33 432.5-17.11 432.26-15.6L432.26-15.6 445.37-15.6Q445.27-17.02 444.92-18.21 444.56-19.41 443.83-20.29 443.1-21.17 441.95-21.66 440.8-22.14 439.12-22.14Z" opacity="1" transform="matrix(1,0,0,1,0,0)" fill="#eabba7" class="slogan-text-1" data-fill-palette-color="secondary" id="text-1"></path></svg></g></svg></g></svg></g></svg></g><g><svg viewBox="0 0 118.656 122.6112" height="122.6112" width="118.656"><g><svg xmlns="http://www.w3.org/2000/svg" xmlns:xlink="http://www.w3.org/1999/xlink" version="1.1" x="0" y="0" viewBox="2 1 60 62" style="enable-background:new 0 0 64 64;" xml:space="preserve" height="122.6112" width="118.656" class="icon-icon-0" data-fill-palette-color="accent" id="icon-0"><path d="M36 36h-0.026C36.609 35.162 37 34.13 37 33c0-2.757-2.243-5-5-5s-5 2.243-5 5c0 1.13 0.391 2.162 1.026 3H28c-2.206 0-4 1.794-4 4v9c0 1.103 0.897 2 2 2h1v11c0 0.553 0.447 1 1 1h8c0.553 0 1-0.447 1-1V51h1c1.103 0 2-0.897 2-2v-9C40 37.794 38.206 36 36 36zM29 33c0-1.654 1.346-3 3-3s3 1.346 3 3-1.346 3-3 3S29 34.654 29 33zM38 49h-1v-9h-2v21h-2V49h-2v12h-2V40h-2v9h-1v-9c0-1.103 0.897-2 2-2h8c1.103 0 2 0.897 2 2V49z" fill="#f0d0a9" data-fill-palette-color="accent"></path><path d="M42.646 20.969c0-0.496-0.193-0.963-0.544-1.312l-0.854-0.854c0.276-0.531 0.508-1.09 0.688-1.66h1.206c1.024 0 1.857-0.833 1.857-1.856v-2.572c0-1.023-0.833-1.856-1.857-1.856h-1.206c-0.181-0.571-0.412-1.129-0.689-1.66l0.854-0.854c0.352-0.35 0.545-0.816 0.545-1.312 0.001-0.496-0.192-0.963-0.544-1.314l-1.818-1.818c-0.351-0.351-0.817-0.544-1.313-0.544h-0.001c-0.496 0-0.963 0.193-1.312 0.544l-0.854 0.854c-0.531-0.276-1.09-0.508-1.66-0.688V2.857C35.143 1.833 34.31 1 33.286 1h-2.572c-1.023 0-1.856 0.833-1.856 1.857v1.206c-0.571 0.181-1.129 0.412-1.66 0.689l-0.854-0.854c-0.35-0.352-0.816-0.545-1.312-0.545H25.03c-0.496 0-0.963 0.193-1.313 0.544l-1.818 1.818c-0.352 0.352-0.545 0.818-0.544 1.314 0 0.496 0.193 0.963 0.544 1.312l0.854 0.854c-0.276 0.531-0.508 1.09-0.688 1.66h-1.206c-1.024 0-1.857 0.833-1.857 1.856v2.572c0 1.023 0.833 1.856 1.857 1.856h1.206c0.181 0.571 0.412 1.129 0.689 1.66l-0.854 0.854c-0.352 0.35-0.545 0.816-0.545 1.312-0.001 0.496 0.192 0.963 0.544 1.314l1.818 1.818c0.351 0.351 0.817 0.544 1.313 0.544h0.001c0.496 0 0.963-0.193 1.312-0.544l0.854-0.854c0.531 0.276 1.09 0.508 1.66 0.688v1.206c0 1.024 0.833 1.857 1.856 1.857h2.572c1.023 0 1.856-0.833 1.856-1.857v-1.206c0.571-0.181 1.129-0.412 1.66-0.689l0.854 0.854c0.35 0.352 0.816 0.545 1.312 0.545h0.001c0.496 0 0.963-0.193 1.313-0.544l1.818-1.818C42.453 21.932 42.646 21.465 42.646 20.969zM38.971 22.586l-0.824-0.823c-0.576-0.576-1.47-0.714-2.176-0.337-0.482 0.259-0.993 0.471-1.52 0.631-0.771 0.236-1.309 0.976-1.309 1.798V25h-2.285v-1.146c0-0.822-0.538-1.562-1.311-1.799-0.524-0.159-1.035-0.371-1.517-0.63-0.706-0.38-1.601-0.24-2.177 0.337l-0.824 0.823-1.615-1.615 0.823-0.824c0.577-0.577 0.716-1.472 0.337-2.176-0.259-0.482-0.471-0.993-0.631-1.52-0.236-0.771-0.976-1.309-1.798-1.309H21v-2.285h1.146c0.822 0 1.562-0.538 1.799-1.311 0.159-0.524 0.371-1.035 0.63-1.517 0.379-0.705 0.24-1.6-0.337-2.177l-0.823-0.824 1.615-1.615 0.824 0.823c0.576 0.577 1.471 0.717 2.176 0.337 0.482-0.259 0.993-0.471 1.52-0.631 0.771-0.236 1.309-0.976 1.309-1.798V3h2.285v1.146c0 0.822 0.538 1.562 1.311 1.799 0.524 0.159 1.035 0.371 1.517 0.63 0.705 0.379 1.601 0.239 2.177-0.337l0.824-0.823 1.615 1.615-0.823 0.824c-0.577 0.577-0.716 1.472-0.337 2.176 0.259 0.482 0.471 0.993 0.631 1.52 0.236 0.771 0.976 1.309 1.798 1.309H43v2.285h-1.146c-0.822 0-1.562 0.538-1.799 1.311-0.159 0.524-0.371 1.035-0.63 1.517-0.379 0.705-0.24 1.6 0.337 2.177l0.823 0.824L38.971 22.586z" fill="#f0d0a9" data-fill-palette-color="accent"></path><path d="M32 7c-3.859 0-7 3.141-7 7s3.141 7 7 7 7-3.141 7-7S35.859 7 32 7zM32 19c-2.757 0-5-2.243-5-5s2.243-5 5-5 5 2.243 5 5S34.757 19 32 19z" fill="#f0d0a9" data-fill-palette-color="accent"></path><path d="M30.515 10.143c-0.31-0.185-0.694-0.19-1.008-0.013S29 10.64 29 11v6c0 0.36 0.193 0.692 0.507 0.87C29.66 17.957 29.83 18 30 18c0.178 0 0.356-0.048 0.515-0.143l5-3C35.815 14.677 36 14.352 36 14s-0.185-0.677-0.485-0.857L30.515 10.143zM31 15.233v-2.467L33.057 14 31 15.233z" fill="#f0d0a9" data-fill-palette-color="accent"></path><path d="M52 25c-5.514 0-10 4.486-10 10 0 3.261 1.577 6.154 4 7.981V43h0.026c1.669 1.25 3.733 2 5.974 2s4.305-0.75 5.974-2H58v-0.019c2.423-1.827 4-4.719 4-7.981C62 29.486 57.514 25 52 25zM48 41.918V40c0-1.103 0.897-2 2-2h4c1.103 0 2 0.897 2 2v1.918C54.822 42.602 53.458 43 52 43S49.178 42.602 48 41.918zM50 34c0-1.103 0.897-2 2-2s2 0.897 2 2-0.897 2-2 2S50 35.103 50 34zM58 40.274V40c0-1.744-1.128-3.214-2.687-3.761C55.746 35.6 56 34.829 56 34c0-2.206-1.794-4-4-4s-4 1.794-4 4c0 0.829 0.254 1.6 0.687 2.239C47.128 36.786 46 38.256 46 40v0.274c-1.241-1.41-2-3.253-2-5.274 0-4.411 3.589-8 8-8s8 3.589 8 8C60 37.021 59.241 38.864 58 40.274z" fill="#f0d0a9" data-fill-palette-color="accent"></path><path d="M12 25C6.486 25 2 29.486 2 35c0 3.261 1.577 6.154 4 7.981V43h0.026c1.669 1.25 3.733 2 5.974 2s4.305-0.75 5.974-2H18v-0.019c2.423-1.827 4-4.719 4-7.981C22 29.486 17.514 25 12 25zM8 41.918V40c0-1.103 0.897-2 2-2h4c1.103 0 2 0.897 2 2v1.918C14.822 42.602 13.458 43 12 43S9.178 42.602 8 41.918zM10 34c0-1.103 0.897-2 2-2s2 0.897 2 2-0.897 2-2 2S10 35.103 10 34zM18 40.274V40c0-1.744-1.128-3.214-2.687-3.761C15.746 35.6 16 34.829 16 34c0-2.206-1.794-4-4-4s-4 1.794-4 4c0 0.829 0.254 1.6 0.687 2.239C7.128 36.786 6 38.256 6 40v0.274C4.759 38.864 4 37.021 4 35c0-4.411 3.589-8 8-8s8 3.589 8 8C20 37.021 19.241 38.864 18 40.274z" fill="#f0d0a9" data-fill-palette-color="accent"></path><rect x="47" y="13" width="2" height="2" fill="#f0d0a9" data-fill-palette-color="accent"></rect><rect x="51" y="13" width="2" height="2" fill="#f0d0a9" data-fill-palette-color="accent"></rect><rect x="51" y="17" width="2" height="2" fill="#f0d0a9" data-fill-palette-color="accent"></rect><rect x="51" y="21" width="2" height="2" fill="#f0d0a9" data-fill-palette-color="accent"></rect><rect x="15" y="13" width="2" height="2" fill="#f0d0a9" data-fill-palette-color="accent"></rect><rect x="11" y="13" width="2" height="2" fill="#f0d0a9" data-fill-palette-color="accent"></rect><rect x="11" y="17" width="2" height="2" fill="#f0d0a9" data-fill-palette-color="accent"></rect><rect x="11" y="21" width="2" height="2" fill="#f0d0a9" data-fill-palette-color="accent"></rect></svg></g></svg></g></svg></g></svg></g></svg></g><defs></defs></svg><rect width="320" height="360" fill="none" stroke="none" visibility="hidden"></rect></g></svg></g></svg>