<?xml version="1.0" standalone="no"?>
<!DOCTYPE svg PUBLIC "-//W3C//DTD SVG 20010904//EN"
 "http://www.w3.org/TR/2001/REC-SVG-20010904/DTD/svg10.dtd">
<svg version="1.0" xmlns="http://www.w3.org/2000/svg"
 width="200.000000pt" height="200.000000pt" viewBox="0 0 200.000000 200.000000"
 preserveAspectRatio="xMidYMid meet">

<g transform="translate(0.000000,200.000000) scale(0.100000,-0.100000)"
fill="#000000" stroke="none">
<path d="M0 1000 l0 -1000 1000 0 1000 0 0 1000 0 1000 -1000 0 -1000 0 0
-1000z m1023 594 c11 -4 17 -15 15 -28 -3 -18 -12 -22 -73 -28 -98 -11 -217
-72 -310 -160 -97 -91 -122 -140 -141 -275 -15 -104 -24 -246 -15 -237 3 2 17
-23 33 -55 22 -45 51 -80 123 -146 66 -61 100 -85 111 -81 11 4 15 2 11 -8 -8
-20 35 -36 143 -52 104 -16 175 -10 189 14 10 18 30 23 91 24 39 0 57 9 144
72 54 39 108 77 120 85 11 8 34 26 50 40 l28 26 -7 -25 c-7 -25 -34 -74 -90
-162 -17 -27 -38 -48 -47 -48 -10 0 -18 -4 -18 -9 0 -5 -8 -8 -17 -7 -13 1
-17 -5 -16 -21 2 -15 -2 -21 -11 -17 -7 3 -27 -11 -44 -30 -17 -20 -36 -36
-42 -36 -5 0 -10 -7 -10 -15 0 -17 -16 -20 -25 -5 -7 12 -46 3 -57 -13 -4 -7
-17 -6 -38 3 -19 8 -74 14 -134 14 -55 1 -103 3 -106 6 -13 13 -110 60 -124
60 -9 0 -34 9 -56 20 -22 11 -52 20 -68 20 -34 0 -57 23 -73 71 -7 19 -17 41
-24 49 -6 8 -31 61 -54 117 -36 86 -42 109 -36 142 5 32 1 52 -18 95 -24 52
-25 57 -12 129 16 92 24 107 91 179 30 31 54 62 54 69 0 6 26 36 58 65 41 39
65 54 86 54 18 0 35 9 48 25 11 14 30 25 42 25 13 0 35 9 49 20 15 12 27 16
29 9 2 -6 25 0 58 15 30 14 60 24 65 21 6 -3 18 -8 28 -11z m270 -44 c77 -29
127 -77 197 -188 65 -103 66 -106 75 -195 4 -38 10 -55 17 -50 8 4 9 0 4 -12
-4 -11 -10 -40 -14 -65 l-6 -45 -8 50 c-4 27 -12 51 -17 53 -19 6 -53 71 -46
91 4 12 -4 30 -20 50 -15 17 -31 46 -36 65 -6 23 -14 33 -23 30 -8 -3 -64 29
-125 70 -61 42 -120 76 -131 76 -28 0 -68 20 -75 38 -18 49 110 69 208 32z
m-498 -426 c14 -9 22 -20 20 -25 -3 -5 6 -11 20 -15 17 -4 25 -13 24 -28 -1
-17 -2 -18 -6 -3 -5 20 -40 18 -35 -2 1 -7 -7 -15 -18 -18 -21 -6 -25 -15 -12
-27 4 -4 7 -11 8 -14 0 -4 4 -15 8 -24 12 -27 -7 -102 -27 -106 -10 -2 -19 4
-23 15 -3 10 -10 26 -15 35 -11 22 -12 51 0 64 5 5 12 19 15 30 5 16 2 23 -15
27 -11 3 -18 10 -15 16 4 5 -2 14 -11 20 -17 9 -17 10 -1 16 10 4 15 11 12 17
-3 5 3 12 15 15 12 3 21 9 21 14 0 13 7 11 35 -7z m475 -33 c0 -11 -4 -23 -10
-26 -6 -4 -10 5 -10 19 0 14 5 26 10 26 6 0 10 -9 10 -19z m-236 -14 c9 -14 7
-21 -8 -32 -19 -15 -14 -35 10 -35 8 0 14 -4 14 -10 0 -22 -41 -9 -50 15 -10
27 -30 34 -30 10 0 -8 5 -15 10 -15 6 0 10 -4 10 -10 0 -5 -14 -10 -32 -10
-25 0 -29 3 -20 12 16 16 15 71 0 87 -11 10 -3 12 36 9 34 -2 52 -8 60 -21z
m-347 -29 c-3 -7 -5 -2 -5 12 0 14 2 19 5 13 2 -7 2 -19 0 -25z m445 -3 c8
-19 8 -28 -2 -40 -18 -21 -57 -19 -70 4 -13 25 -13 27 6 45 23 24 53 20 66 -9z
m45 12 c-3 -8 -1 -20 4 -28 8 -12 10 -12 18 0 5 8 7 20 4 28 -3 8 2 13 16 13
12 0 21 -4 21 -10 0 -5 -4 -10 -9 -10 -4 0 -16 -20 -25 -44 -18 -46 -42 -64
-60 -46 -7 7 -5 10 6 10 28 0 31 19 9 56 -26 43 -26 44 0 44 14 0 19 -5 16
-13z m173 -3 c0 -7 -9 -10 -22 -8 l-23 5 23 -12 c33 -18 29 -49 -7 -49 -31 0
-49 14 -32 24 5 4 12 2 16 -4 8 -13 25 -13 25 0 0 6 -6 10 -14 10 -19 0 -29
17 -22 35 6 18 56 16 56 -1z m-630 -39 c17 -20 5 -62 -20 -70 -44 -14 -80 41
-48 73 17 17 53 15 68 -3z m168 3 c32 -32 -4 -87 -48 -73 -25 8 -37 50 -20 70
15 18 51 20 68 3z m109 -111 c3 -4 -8 -7 -25 -7 -18 0 -32 4 -32 9 0 11 46 8
57 -2z m78 3 c4 -6 -9 -10 -32 -9 -38 1 -38 1 -8 9 17 4 31 8 32 9 1 0 5 -3 8
-9z m90 -9 c-18 -7 -55 -4 -55 5 0 2 17 4 38 3 28 0 32 -2 17 -8z"/>
<path d="M770 1066 c0 -2 7 -7 16 -10 8 -3 12 -2 9 4 -6 10 -25 14 -25 6z"/>
<path d="M760 945 c0 -14 5 -25 10 -25 6 0 10 11 10 25 0 14 -4 25 -10 25 -5
0 -10 -11 -10 -25z"/>
<path d="M970 1065 c0 -11 7 -15 23 -13 12 2 22 8 22 13 0 6 -10 11 -22 13
-16 2 -23 -2 -23 -13z"/>
<path d="M1077 1036 c-8 -19 15 -37 32 -26 17 10 7 40 -13 40 -7 0 -16 -6 -19
-14z"/>
<path d="M660 1005 c-6 -8 -10 -20 -7 -27 4 -8 8 -5 12 10 8 25 35 30 35 7 0
-8 5 -15 10 -15 14 0 13 13 -2 28 -16 16 -33 15 -48 -3z"/>
<path d="M678 963 c7 -3 16 -2 19 1 4 3 -2 6 -13 5 -11 0 -14 -3 -6 -6z"/>
<path d="M830 1000 c-7 -14 -7 -20 0 -20 5 0 10 7 10 15 0 23 30 18 40 -7 5
-14 9 -17 9 -7 1 18 -18 39 -36 39 -7 0 -17 -9 -23 -20z"/>
<path d="M848 963 c7 -3 16 -2 19 1 4 3 -2 6 -13 5 -11 0 -14 -3 -6 -6z"/>
</g>
</svg>
